<?xml version="1.0" standalone="no"?>
<!DOCTYPE svg PUBLIC "-//W3C//DTD SVG 20010904//EN"
 "http://www.w3.org/TR/2001/REC-SVG-20010904/DTD/svg10.dtd">
<svg version="1.0" xmlns="http://www.w3.org/2000/svg"
 width="1000.000000pt" height="1000.000000pt" viewBox="0 0 1000.000000 1000.000000"
 preserveAspectRatio="xMidYMid meet">

<g transform="translate(0.000000,1000.000000) scale(0.100000,-0.100000)"
fill="#000000" stroke="none">
<path d="M5516 7834 c-60 -41 -176 -91 -273 -119 -263 -74 -673 -77 -948 -7
-80 20 -101 19 -108 -8 -12 -46 55 -267 109 -356 116 -194 254 -247 581 -225
183 12 294 32 415 72 128 43 203 84 269 149 56 54 57 56 69 137 12 82 9 157
-11 238 -13 53 -50 145 -58 145 -3 0 -24 -12 -45 -26z m-5 -141 c-10 -27 -27
-67 -36 -91 l-18 -43 39 -40 38 -39 -22 -23 -23 -22 -28 34 -27 33 -28 -75
c-24 -66 -59 -118 -70 -106 -2 2 14 49 35 104 l39 99 -35 36 c-36 36 -36 36
-15 55 20 18 21 18 45 -5 14 -13 27 -22 29 -19 2 2 14 29 26 59 21 55 46 90
61 90 5 0 0 -21 -10 -47z m-367 -136 c25 -33 33 -133 17 -194 -29 -107 -136
-151 -176 -73 -23 45 -20 173 6 227 36 75 112 95 153 40z"/>
<path d="M5065 7550 c-31 -12 -44 -33 -51 -83 l-6 -45 58 16 c33 9 60 16 62
17 1 1 0 21 -4 44 -7 45 -28 63 -59 51z"/>
<path d="M5063 7402 c-44 -12 -53 -19 -53 -38 0 -44 18 -74 44 -74 26 0 66 34
66 56 0 6 3 26 6 43 7 35 9 34 -63 13z"/>
<path d="M6548 7043 c-37 -40 -50 -70 -50 -118 -2 -92 78 -160 179 -152 61 4
125 42 148 86 l15 30 -49 -25 c-65 -34 -98 -27 -163 36 l-50 49 4 60 c2 34 1
61 -2 61 -3 0 -18 -12 -32 -27z"/>
<path d="M5590 6832 c0 -75 -23 -210 -50 -286 -11 -33 -20 -85 -20 -117 l0
-58 30 10 c49 18 117 86 146 147 36 75 38 165 5 237 -22 50 -61 99 -93 116
-16 9 -18 4 -18 -49z"/>
<path d="M5121 6736 c-41 -42 -126 -89 -205 -111 -95 -28 -243 -23 -341 10
-44 14 -85 31 -93 37 -22 19 -25 0 -8 -46 22 -57 118 -155 182 -186 69 -34
226 -35 297 -3 62 29 152 119 178 180 21 48 41 153 29 153 -3 0 -21 -15 -39
-34z"/>
<path d="M3971 6602 c-36 -6 -70 -31 -87 -63 -24 -48 -16 -52 35 -15 40 29 57
36 96 36 110 0 205 -106 205 -230 0 -43 -5 -54 -45 -101 -40 -47 -43 -54 -28
-61 14 -5 13 -7 -8 -7 -28 -1 -85 -53 -75 -69 14 -22 108 -45 166 -39 62 5
142 41 178 79 l23 25 -88 6 c-48 4 -103 9 -120 13 l-33 6 30 34 c119 136 -63
418 -249 386z"/>
<path d="M3140 6426 c0 -26 -19 -46 -67 -70 -45 -23 -84 -20 -123 9 -32 23
-35 24 -41 8 -8 -21 -1 -57 18 -96 16 -32 82 -67 128 -67 47 0 112 35 129 69
20 38 20 93 1 130 -19 38 -45 48 -45 17z"/>
<path d="M6296 6399 c-44 -28 -106 -73 -139 -100 -90 -75 -130 -93 -207 -93
-52 0 -73 4 -105 25 -90 56 -85 57 -209 -14 -107 -62 -111 -66 -114 -101 l-3
-36 111 65 111 65 627 -362 c345 -198 827 -477 1072 -618 245 -141 574 -330
732 -421 158 -90 286 -167 285 -171 -1 -4 -301 -180 -667 -391 -366 -211
-1297 -748 -2070 -1194 -773 -445 -1415 -815 -1427 -822 -21 -10 -120 45
-1040 575 -1610 928 -1657 955 -1682 971 -23 15 -22 16 65 65 154 88 2429
1400 2432 1403 2 2 2 17 0 33 l-3 30 -245 -142 c-135 -78 -805 -465 -1490
-860 -685 -396 -1260 -733 -1277 -750 -38 -35 -44 -81 -15 -115 22 -27 2572
-1489 2637 -1512 57 -21 141 -24 198 -8 29 8 4949 2841 5060 2913 38 26 51 66
34 107 -12 29 -38 48 -168 123 -894 514 -2404 1378 -2413 1381 -6 2 -47 -19
-90 -46z m1977 -1256 c-7 -2 -21 -2 -30 0 -10 3 -4 5 12 5 17 0 24 -2 18 -5z
m-5575 -2470 c-10 -2 -26 -2 -35 0 -10 3 -2 5 17 5 19 0 27 -2 18 -5z"/>
<path d="M2040 2738 c1 -13 6 -33 13 -46 13 -23 397 -252 423 -252 23 0 28 29
12 63 -13 26 -54 54 -213 145 -109 61 -206 112 -216 112 -13 0 -19 -7 -19 -22z"/>
</g>
</svg>
